<?xml version="1.0" encoding="UTF-8" standalone="no"?>
<!-- Created with Inkscape (http://www.inkscape.org/) -->

<svg
   xmlns:dc="http://purl.org/dc/elements/1.1/"
   xmlns:cc="http://creativecommons.org/ns#"
   xmlns:rdf="http://www.w3.org/1999/02/22-rdf-syntax-ns#"
   xmlns:svg="http://www.w3.org/2000/svg"
   xmlns="http://www.w3.org/2000/svg"
   xmlns:sodipodi="http://sodipodi.sourceforge.net/DTD/sodipodi-0.dtd"
   xmlns:inkscape="http://www.inkscape.org/namespaces/inkscape"
   width="375.40488mm"
   height="50mm"
   viewBox="0 0 375.40487 50"
   version="1.1"
   id="svg8"
   sodipodi:docname="redtownserver_logo.svg"
   inkscape:version="0.92.4 (5da689c313, 2019-01-14)">
  <defs
     id="defs2" />
  <sodipodi:namedview
     id="base"
     pagecolor="#ffffff"
     bordercolor="#666666"
     borderopacity="1.0"
     inkscape:pageopacity="0.0"
     inkscape:pageshadow="2"
     inkscape:zoom="0.5"
     inkscape:cx="910.44873"
     inkscape:cy="212.9176"
     inkscape:document-units="mm"
     inkscape:current-layer="svg8"
     showgrid="false"
     fit-margin-top="0"
     fit-margin-left="0"
     fit-margin-right="13.5"
     fit-margin-bottom="0"
     inkscape:window-width="1920"
     inkscape:window-height="1057"
     inkscape:window-x="-8"
     inkscape:window-y="-8"
     inkscape:window-maximized="1" />
  <metadata
     id="metadata5">
    <rdf:RDF>
      <cc:Work
         rdf:about="">
        <dc:format>image/svg+xml</dc:format>
        <dc:type
           rdf:resource="http://purl.org/dc/dcmitype/StillImage" />
        <dc:title></dc:title>
      </cc:Work>
    </rdf:RDF>
  </metadata>
  <g
     inkscape:label="レイヤー 1"
     inkscape:groupmode="layer"
     id="layer1"
     transform="translate(-12.851191,-39.220238)">
    <rect
       style="fill:#fe3939;fill-opacity:1;stroke-width:0.26458332;paint-order:stroke fill markers"
       id="rect830"
       width="50"
       height="50"
       x="12.851191"
       y="39.220238"
       rx="0.37125275"
       ry="0.12277699" />
    <g
       aria-label="R"
       transform="scale(0.26458333)"
       style="font-style:normal;font-variant:normal;font-weight:800;font-stretch:normal;font-size:167.33332825px;line-height:1.25;font-family:LightNovelPopV2;-inkscape-font-specification:'LightNovelPopV2 Ultra-Bold';text-align:center;letter-spacing:0px;word-spacing:0px;writing-mode:lr-tb;text-anchor:middle;fill:#000000;fill-opacity:1;stroke:none"
       id="flowRoot842">
      <path
         d="m 136.03811,267.8777 c 9.37066,0 12.88466,2.67734 16.064,12.048 l 11.546,33.132 h 29.28333 l -12.88467,-34.30333 c -3.68133,-10.04 -8.36666,-16.73333 -14.22333,-19.91267 v -0.33466 c 14.22333,-5.18733 23.76133,-18.072 23.76133,-32.96467 0,-23.25933 -16.23133,-36.31133 -49.698,-36.31133 -14.558,0 -27.94466,0.83667 -40.159995,2.51 V 313.0577 h 27.944665 v -45.18 z m -8.36667,-56.05666 c 3.012,-0.66933 6.526,-1.004 10.542,-1.004 15.22733,0 22.92467,5.85667 22.92467,17.40267 0,11.88066 -8.534,18.74133 -24.096,18.74133 h -9.37067 z"
         style="font-style:normal;font-variant:normal;font-weight:800;font-stretch:normal;font-size:167.33332825px;font-family:LightNovelPopV2;-inkscape-font-specification:'LightNovelPopV2 Ultra-Bold';font-variant-ligatures:normal;font-variant-caps:normal;font-variant-numeric:normal;font-feature-settings:normal;text-align:center;letter-spacing:0.02px;writing-mode:lr-tb;text-anchor:middle;fill:#ffffff"
         id="path856" />
    </g>
    <g
       aria-label="edTownServer"
       transform="matrix(0.26897739,0,0,0.26458333,2.0369398,0)"
       style="font-style:normal;font-weight:normal;font-size:40px;line-height:1.25;font-family:sans-serif;letter-spacing:0px;word-spacing:0px;fill:#ff3a3a;fill-opacity:1;stroke:none"
       id="flowRoot866">
      <path
         d="m 324.47366,276.30208 c 0.49767,-3.15193 0.66356,-5.80618 0.66356,-8.12865 0,-29.69446 -13.43715,-44.45874 -40.14557,-44.45874 -27.37199,0 -42.30216,15.75963 -42.30216,44.79052 0,29.19678 16.92086,44.79052 46.9471,44.79052 9.12399,0 18.91155,-1.32713 29.03089,-3.98138 v -19.24333 c -10.45112,3.15192 -18.91155,4.64494 -25.04951,4.64494 -15.75963,0 -22.89293,-5.14262 -24.38595,-18.41388 z m -55.24164,-15.92552 c 1.16124,-13.43715 5.80618,-18.57977 16.2573,-18.57977 9.62167,0 14.4325,6.13796 14.59839,18.57977 z"
         style="font-style:normal;font-variant:normal;font-weight:normal;font-stretch:normal;font-size:165.89080811px;font-family:LightNovelPopV2;-inkscape-font-specification:LightNovelPopV2;text-align:start;baseline-shift:baseline;text-anchor:start;fill:#ff3a3a;fill-opacity:1"
         id="path831"
         inkscape:connector-curvature="0" />
      <path
         d="m 397.6678,233.99992 h -0.33179 c -7.46508,-6.80152 -15.75962,-10.28523 -24.88362,-10.28523 -20.57046,0 -33.67583,16.09141 -33.67583,44.79052 0,28.03555 13.93483,44.79052 33.67583,44.79052 10.45112,0 19.24334,-4.14727 26.37664,-12.6077 h 0.33178 l 0.33178,10.94879 h 25.04952 V 187.21871 H 397.6678 Z m -32.68049,34.50529 c 0,-16.58908 5.47439,-24.88362 16.58908,-24.88362 8.79221,0 16.58908,7.1333 16.58908,14.59839 v 20.57046 c 0,7.46509 -7.79687,14.59839 -16.58908,14.59839 -10.11934,0 -16.58908,-8.12865 -16.58908,-24.88362 z"
         style="font-style:normal;font-variant:normal;font-weight:normal;font-stretch:normal;font-size:165.89080811px;font-family:LightNovelPopV2;-inkscape-font-specification:LightNovelPopV2;text-align:start;baseline-shift:baseline;text-anchor:start;fill:#ff3a3a;fill-opacity:1"
         id="path833"
         inkscape:connector-curvature="0" />
      <path
         d="m 537.52152,190.53653 h -92.89886 v 23.39061 h 32.01693 v 97.70968 h 28.865 v -97.70968 h 32.01693 z"
         style="font-style:normal;font-variant:normal;font-weight:normal;font-stretch:normal;font-size:165.89080811px;font-family:LightNovelPopV2;-inkscape-font-specification:LightNovelPopV2;text-align:start;baseline-shift:baseline;text-anchor:start;fill:#ff3a3a;fill-opacity:1"
         id="path835"
         inkscape:connector-curvature="0" />
      <path
         d="m 536.23847,268.50521 c 0,28.36733 16.09141,44.79052 43.46339,44.79052 27.37199,0 43.2975,-16.42319 43.2975,-44.79052 0,-28.36733 -15.92551,-44.79052 -43.2975,-44.79052 -27.37198,0 -43.46339,16.42319 -43.46339,44.79052 z m 27.0402,0 c 0,-18.41388 5.30851,-26.04486 16.42319,-26.04486 11.11469,0 16.42319,7.63098 16.42319,26.04486 0,18.41388 -5.3085,26.04486 -16.42319,26.04486 -11.11468,0 -16.42319,-7.63098 -16.42319,-26.04486 z"
         style="font-style:normal;font-variant:normal;font-weight:normal;font-stretch:normal;font-size:165.89080811px;font-family:LightNovelPopV2;-inkscape-font-specification:LightNovelPopV2;text-align:start;baseline-shift:baseline;text-anchor:start;fill:#ff3a3a;fill-opacity:1"
         id="path837"
         inkscape:connector-curvature="0" />
      <path
         d="m 659.68973,225.3736 h -27.0402 l 19.57511,86.26322 h 31.85104 l 11.11468,-63.03851 h 0.33179 l 11.28057,63.03851 h 31.68514 l 19.74101,-86.26322 h -26.37664 l -9.62166,64.69742 h -0.33179 L 711.28177,225.3736 h -31.02158 l -10.61701,64.69742 h -0.33178 z"
         style="font-style:normal;font-variant:normal;font-weight:normal;font-stretch:normal;font-size:165.89080811px;font-family:LightNovelPopV2;-inkscape-font-specification:LightNovelPopV2;text-align:start;baseline-shift:baseline;text-anchor:start;fill:#ff3a3a;fill-opacity:1"
         id="path839"
         inkscape:connector-curvature="0" />
      <path
         d="m 775.00458,311.63682 h 26.87431 V 259.713 c 0,-7.2992 7.63098,-14.93017 15.42785,-14.93017 9.28988,0 12.27592,4.14727 12.27592,17.41853 v 49.43546 h 26.21074 v -50.26491 c 0,-27.2061 -8.46043,-37.65722 -28.53322,-37.65722 -10.11934,0 -18.91155,4.14727 -26.04485,12.6077 h -0.33178 l -0.33179,-10.94879 h -25.54718 z"
         style="font-style:normal;font-variant:normal;font-weight:normal;font-stretch:normal;font-size:165.89080811px;font-family:LightNovelPopV2;-inkscape-font-specification:LightNovelPopV2;text-align:start;baseline-shift:baseline;text-anchor:start;fill:#ff3a3a;fill-opacity:1"
         id="path841"
         inkscape:connector-curvature="0" />
      <path
         d="m 951.10025,195.51326 c -10.28523,-4.47906 -22.39526,-6.63564 -36.49598,-6.63564 -27.0402,0 -41.97038,12.93949 -41.97038,33.67584 0,19.07744 11.61236,31.85103 39.48202,40.64325 10.45112,3.31781 14.10071,7.63097 14.10071,14.93017 0,8.46043 -6.13796,13.10537 -17.9162,13.10537 -11.44647,0 -22.22937,-3.48371 -32.68049,-10.61701 v 24.05417 c 10.11934,5.80618 21.5658,8.62632 34.33939,8.62632 30.02624,0 45.1223,-11.94414 45.1223,-35.66652 0,-20.07279 -10.11933,-31.35337 -40.64324,-40.64325 -8.95811,-2.98604 -13.43716,-7.79687 -13.43716,-14.4325 0,-7.96276 5.14262,-11.94414 15.26196,-11.94414 11.77824,0 23.3906,2.82014 34.83707,8.62632 z"
         style="font-style:normal;font-variant:normal;font-weight:normal;font-stretch:normal;font-size:165.89080811px;font-family:LightNovelPopV2;-inkscape-font-specification:LightNovelPopV2;text-align:start;baseline-shift:baseline;text-anchor:start;fill:#ff3a3a;fill-opacity:1"
         id="path843"
         inkscape:connector-curvature="0" />
      <path
         d="m 1050.57,276.30208 c 0.4976,-3.15193 0.6635,-5.80618 0.6635,-8.12865 0,-29.69446 -13.4371,-44.45874 -40.1455,-44.45874 -27.37202,0 -42.3022,15.75963 -42.3022,44.79052 0,29.19678 16.92087,44.79052 46.9471,44.79052 9.124,0 18.9116,-1.32713 29.0309,-3.98138 v -19.24333 c -10.4511,3.15192 -18.9116,4.64494 -25.0495,4.64494 -15.7596,0 -22.89295,-5.14262 -24.38597,-18.41388 z m -55.24167,-15.92552 c 1.16124,-13.43715 5.80617,-18.57977 16.25727,-18.57977 9.6217,0 14.4325,6.13796 14.5984,18.57977 z"
         style="font-style:normal;font-variant:normal;font-weight:normal;font-stretch:normal;font-size:165.89080811px;font-family:LightNovelPopV2;-inkscape-font-specification:LightNovelPopV2;text-align:start;baseline-shift:baseline;text-anchor:start;fill:#ff3a3a;fill-opacity:1"
         id="path845"
         inkscape:connector-curvature="0" />
      <path
         d="m 1068.2296,311.63682 h 27.7037 v -36.49598 c 0,-18.41388 12.7736,-29.52856 34.1735,-29.52856 h 3.3178 V 225.3736 h -3.3178 c -14.4325,0 -27.2061,6.13796 -34.6712,16.58908 h -0.3317 V 225.3736 h -26.8743 z"
         style="font-style:normal;font-variant:normal;font-weight:normal;font-stretch:normal;font-size:165.89080811px;font-family:LightNovelPopV2;-inkscape-font-specification:LightNovelPopV2;text-align:start;baseline-shift:baseline;text-anchor:start;fill:#ff3a3a;fill-opacity:1"
         id="path847"
         inkscape:connector-curvature="0" />
      <path
         d="m 1174.2105,225.3736 h -28.6992 l 26.8744,86.26322 h 35.3347 l 26.8743,-86.26322 h -28.0355 l -16.0914,70.83538 h -0.3318 z"
         style="font-style:normal;font-variant:normal;font-weight:normal;font-stretch:normal;font-size:165.89080811px;font-family:LightNovelPopV2;-inkscape-font-specification:LightNovelPopV2;text-align:start;baseline-shift:baseline;text-anchor:start;fill:#ff3a3a;fill-opacity:1"
         id="path849"
         inkscape:connector-curvature="0" />
      <path
         d="m 1323.3826,276.30208 c 0.4977,-3.15193 0.6636,-5.80618 0.6636,-8.12865 0,-29.69446 -13.4372,-44.45874 -40.1456,-44.45874 -27.372,0 -42.3022,15.75963 -42.3022,44.79052 0,29.19678 16.9209,44.79052 46.9471,44.79052 9.124,0 18.9116,-1.32713 29.0309,-3.98138 v -19.24333 c -10.4511,3.15192 -18.9115,4.64494 -25.0495,4.64494 -15.7596,0 -22.8929,-5.14262 -24.3859,-18.41388 z m -55.2416,-15.92552 c 1.1612,-13.43715 5.8061,-18.57977 16.2573,-18.57977 9.6216,0 14.4325,6.13796 14.5983,18.57977 z"
         style="font-style:normal;font-variant:normal;font-weight:normal;font-stretch:normal;font-size:165.89080811px;font-family:LightNovelPopV2;-inkscape-font-specification:LightNovelPopV2;text-align:start;baseline-shift:baseline;text-anchor:start;fill:#ff3a3a;fill-opacity:1"
         id="path851"
         inkscape:connector-curvature="0" />
      <path
         d="m 1341.0422,311.63682 h 27.7037 v -36.49598 c 0,-18.41388 12.7736,-29.52856 34.1735,-29.52856 h 3.3179 V 225.3736 h -3.3179 c -14.4325,0 -27.206,6.13796 -34.6711,16.58908 h -0.3318 V 225.3736 h -26.8743 z"
         style="font-style:normal;font-variant:normal;font-weight:normal;font-stretch:normal;font-size:165.89080811px;font-family:LightNovelPopV2;-inkscape-font-specification:LightNovelPopV2;text-align:start;baseline-shift:baseline;text-anchor:start;fill:#ff3a3a;fill-opacity:1"
         id="path853"
         inkscape:connector-curvature="0" />
    </g>
  </g>
  <rect
     style="fill:#ffffff;fill-opacity:0.97777776;stroke-width:0.26014328;paint-order:stroke fill markers"
     id="rect899"
     width="36.448334"
     height="4.3467231"
     x="13.539019"
     y="39.482304" />
  <rect
     y="39.482304"
     x="49.987354"
     height="4.3467255"
     width="307.3483"
     id="rect906"
     style="fill:#fe3939;fill-opacity:1;stroke-width:0.26353621;paint-order:stroke fill markers" />
  <rect
     style="fill:#fe3939;fill-opacity:1;stroke-width:0.26458332;paint-order:stroke fill markers"
     id="rect859"
     width="0.52916664"
     height="1.5875"
     x="62.441666"
     y="40.474998" />
</svg>
